<mxfile host="app.diagrams.net" modified="2023-05-30T02:12:11.009Z" agent="Mozilla/5.0 (Macintosh; Intel Mac OS X 10_15_7) AppleWebKit/537.36 (KHTML, like Gecko) Chrome/113.0.0.0 Safari/537.36" etag="w8vPJQZCKQHXdaVEeIKG" version="21.3.5" type="github">
  <diagram name="第 1 页" id="gz4SnEZsWKSaeQgla4mq">
    <mxGraphModel dx="1185" dy="1770" grid="1" gridSize="10" guides="1" tooltips="1" connect="1" arrows="1" fold="1" page="1" pageScale="1" pageWidth="2339" pageHeight="3300" math="0" shadow="0">
      <root>
        <mxCell id="0" />
        <mxCell id="1" parent="0" />
        <mxCell id="Fdl6JGxpaCA02cmtLNXk-2" value="&lt;font style=&quot;font-size: 25px;&quot;&gt;&lt;b&gt;ITEM PIPELINES&lt;/b&gt;&lt;/font&gt;" style="rounded=0;whiteSpace=wrap;html=1;strokeWidth=2;fillColor=#b0e3e6;strokeColor=#0e8088;" vertex="1" parent="1">
          <mxGeometry x="80" y="795" width="310" height="80" as="geometry" />
        </mxCell>
        <mxCell id="Fdl6JGxpaCA02cmtLNXk-31" value="&lt;font style=&quot;font-size: 18px;&quot;&gt;ITEMS&lt;/font&gt;" style="edgeStyle=orthogonalEdgeStyle;rounded=0;orthogonalLoop=1;jettySize=auto;html=1;exitX=0;exitY=0.5;exitDx=0;exitDy=0;entryX=1;entryY=0.5;entryDx=0;entryDy=0;strokeWidth=3;strokeColor=#FF2424;" edge="1" parent="1" source="Fdl6JGxpaCA02cmtLNXk-3" target="Fdl6JGxpaCA02cmtLNXk-2">
          <mxGeometry relative="1" as="geometry" />
        </mxCell>
        <mxCell id="Fdl6JGxpaCA02cmtLNXk-32" style="edgeStyle=orthogonalEdgeStyle;rounded=0;orthogonalLoop=1;jettySize=auto;html=1;exitX=0;exitY=0.5;exitDx=0;exitDy=0;entryX=0.302;entryY=0;entryDx=0;entryDy=0;entryPerimeter=0;strokeWidth=3;strokeColor=#FF2424;" edge="1" parent="1" source="Fdl6JGxpaCA02cmtLNXk-3" target="Fdl6JGxpaCA02cmtLNXk-23">
          <mxGeometry relative="1" as="geometry">
            <Array as="points">
              <mxPoint x="590" y="835" />
              <mxPoint x="590" y="975" />
              <mxPoint x="674" y="975" />
            </Array>
          </mxGeometry>
        </mxCell>
        <mxCell id="Fdl6JGxpaCA02cmtLNXk-33" value="&lt;font style=&quot;font-size: 18px;&quot;&gt;REQUSESTS&lt;/font&gt;" style="edgeLabel;html=1;align=center;verticalAlign=middle;resizable=0;points=[];" vertex="1" connectable="0" parent="Fdl6JGxpaCA02cmtLNXk-32">
          <mxGeometry x="-0.5309" y="2" relative="1" as="geometry">
            <mxPoint as="offset" />
          </mxGeometry>
        </mxCell>
        <mxCell id="Fdl6JGxpaCA02cmtLNXk-3" value="&lt;font style=&quot;font-size: 25px;&quot;&gt;&lt;b&gt;ENGINE&lt;/b&gt;&lt;/font&gt;" style="rhombus;whiteSpace=wrap;html=1;strokeWidth=2;fillColor=#f5f5f5;fontColor=#333333;strokeColor=#666666;" vertex="1" parent="1">
          <mxGeometry x="585" y="790" width="360" height="90" as="geometry" />
        </mxCell>
        <mxCell id="Fdl6JGxpaCA02cmtLNXk-10" style="edgeStyle=orthogonalEdgeStyle;rounded=0;orthogonalLoop=1;jettySize=auto;html=1;exitX=0;exitY=0.5;exitDx=0;exitDy=0;entryX=0;entryY=0.5;entryDx=0;entryDy=0;strokeWidth=2;dashed=1;endArrow=none;endFill=0;" edge="1" parent="1" source="Fdl6JGxpaCA02cmtLNXk-6" target="Fdl6JGxpaCA02cmtLNXk-8">
          <mxGeometry relative="1" as="geometry">
            <Array as="points">
              <mxPoint x="610" y="490" />
              <mxPoint x="610" y="490" />
            </Array>
          </mxGeometry>
        </mxCell>
        <mxCell id="Fdl6JGxpaCA02cmtLNXk-11" style="edgeStyle=orthogonalEdgeStyle;rounded=0;orthogonalLoop=1;jettySize=auto;html=1;exitX=1;exitY=0.5;exitDx=0;exitDy=0;entryX=1;entryY=0.5;entryDx=0;entryDy=0;strokeWidth=2;endArrow=none;endFill=0;dashed=1;" edge="1" parent="1" source="Fdl6JGxpaCA02cmtLNXk-6" target="Fdl6JGxpaCA02cmtLNXk-8">
          <mxGeometry relative="1" as="geometry">
            <Array as="points">
              <mxPoint x="920" y="500" />
              <mxPoint x="920" y="500" />
            </Array>
          </mxGeometry>
        </mxCell>
        <mxCell id="Fdl6JGxpaCA02cmtLNXk-6" value="" style="ellipse;whiteSpace=wrap;html=1;strokeWidth=2;fillColor=#b1ddf0;strokeColor=#10739e;" vertex="1" parent="1">
          <mxGeometry x="610" y="440" width="310" height="30" as="geometry" />
        </mxCell>
        <mxCell id="Fdl6JGxpaCA02cmtLNXk-7" value="" style="ellipse;whiteSpace=wrap;html=1;strokeWidth=2;fillColor=#b1ddf0;strokeColor=#10739e;" vertex="1" parent="1">
          <mxGeometry x="610" y="480" width="310" height="30" as="geometry" />
        </mxCell>
        <mxCell id="Fdl6JGxpaCA02cmtLNXk-8" value="" style="ellipse;whiteSpace=wrap;html=1;strokeWidth=2;fillColor=#b1ddf0;strokeColor=#10739e;" vertex="1" parent="1">
          <mxGeometry x="610" y="520" width="310" height="30" as="geometry" />
        </mxCell>
        <mxCell id="Fdl6JGxpaCA02cmtLNXk-9" value="&lt;font style=&quot;font-size: 20px;&quot;&gt;&lt;b&gt;SPIDERS&lt;/b&gt;&lt;/font&gt;" style="text;html=1;align=center;verticalAlign=middle;resizable=0;points=[];autosize=1;strokeColor=none;fillColor=none;" vertex="1" parent="1">
          <mxGeometry x="710" y="370" width="110" height="40" as="geometry" />
        </mxCell>
        <mxCell id="Fdl6JGxpaCA02cmtLNXk-12" value="" style="rounded=0;whiteSpace=wrap;html=1;strokeWidth=2;fillColor=#dae8fc;strokeColor=#6c8ebf;" vertex="1" parent="1">
          <mxGeometry x="705" y="600" width="120" height="40" as="geometry" />
        </mxCell>
        <mxCell id="Fdl6JGxpaCA02cmtLNXk-15" value="" style="rounded=0;whiteSpace=wrap;html=1;strokeWidth=2;fillColor=#dae8fc;strokeColor=#6c8ebf;" vertex="1" parent="1">
          <mxGeometry x="705" y="650" width="120" height="40" as="geometry" />
        </mxCell>
        <mxCell id="Fdl6JGxpaCA02cmtLNXk-16" value="" style="rounded=0;whiteSpace=wrap;html=1;strokeWidth=2;fillColor=#dae8fc;strokeColor=#6c8ebf;" vertex="1" parent="1">
          <mxGeometry x="705" y="700" width="120" height="40" as="geometry" />
        </mxCell>
        <mxCell id="Fdl6JGxpaCA02cmtLNXk-17" value="" style="rounded=0;whiteSpace=wrap;html=1;strokeWidth=2;direction=north;fillColor=#dae8fc;strokeColor=#6c8ebf;" vertex="1" parent="1">
          <mxGeometry x="1009.5" y="775" width="40" height="120" as="geometry" />
        </mxCell>
        <mxCell id="Fdl6JGxpaCA02cmtLNXk-18" value="" style="rounded=0;whiteSpace=wrap;html=1;strokeWidth=2;direction=north;fillColor=#dae8fc;strokeColor=#6c8ebf;" vertex="1" parent="1">
          <mxGeometry x="1068.5" y="775" width="40" height="120" as="geometry" />
        </mxCell>
        <mxCell id="Fdl6JGxpaCA02cmtLNXk-19" value="" style="rounded=0;whiteSpace=wrap;html=1;strokeWidth=2;direction=north;fillColor=#dae8fc;strokeColor=#6c8ebf;" vertex="1" parent="1">
          <mxGeometry x="1129.5" y="775" width="40" height="120" as="geometry" />
        </mxCell>
        <mxCell id="Fdl6JGxpaCA02cmtLNXk-22" value="&lt;font style=&quot;font-size: 25px;&quot;&gt;&lt;b&gt;DOWNLOADER&lt;/b&gt;&lt;/font&gt;" style="rounded=0;whiteSpace=wrap;html=1;strokeWidth=2;fillColor=#d0cee2;strokeColor=#56517e;" vertex="1" parent="1">
          <mxGeometry x="1230" y="795" width="310" height="80" as="geometry" />
        </mxCell>
        <mxCell id="Fdl6JGxpaCA02cmtLNXk-34" style="edgeStyle=orthogonalEdgeStyle;rounded=0;orthogonalLoop=1;jettySize=auto;html=1;exitX=0.5;exitY=0;exitDx=0;exitDy=0;entryX=0.5;entryY=1;entryDx=0;entryDy=0;strokeWidth=3;strokeColor=#FF2424;" edge="1" parent="1" source="Fdl6JGxpaCA02cmtLNXk-23" target="Fdl6JGxpaCA02cmtLNXk-3">
          <mxGeometry relative="1" as="geometry" />
        </mxCell>
        <mxCell id="Fdl6JGxpaCA02cmtLNXk-53" value="&lt;font style=&quot;font-size: 18px;&quot;&gt;REQUESTS&lt;/font&gt;" style="edgeLabel;html=1;align=center;verticalAlign=middle;resizable=0;points=[];" vertex="1" connectable="0" parent="Fdl6JGxpaCA02cmtLNXk-34">
          <mxGeometry x="-0.2165" y="2" relative="1" as="geometry">
            <mxPoint as="offset" />
          </mxGeometry>
        </mxCell>
        <mxCell id="Fdl6JGxpaCA02cmtLNXk-23" value="&lt;font style=&quot;font-size: 25px;&quot;&gt;SCHEDULER&lt;/font&gt;" style="ellipse;whiteSpace=wrap;html=1;strokeWidth=2;fillColor=#b1ddf0;strokeColor=#10739e;" vertex="1" parent="1">
          <mxGeometry x="535" y="1070" width="460" height="90" as="geometry" />
        </mxCell>
        <mxCell id="Fdl6JGxpaCA02cmtLNXk-24" value="&lt;font style=&quot;font-size: 18px;&quot;&gt;REQUESTS&lt;/font&gt;" style="endArrow=classic;html=1;rounded=0;strokeWidth=3;strokeColor=#FF2424;" edge="1" parent="1">
          <mxGeometry width="50" height="50" relative="1" as="geometry">
            <mxPoint x="890" y="580" as="sourcePoint" />
            <mxPoint x="890" y="760" as="targetPoint" />
          </mxGeometry>
        </mxCell>
        <mxCell id="Fdl6JGxpaCA02cmtLNXk-30" value="&lt;font style=&quot;font-size: 18px;&quot;&gt;IEMS/REQUESTS&lt;/font&gt;" style="endArrow=classic;html=1;rounded=0;strokeWidth=3;strokeColor=#FF2424;" edge="1" parent="1">
          <mxGeometry width="50" height="50" relative="1" as="geometry">
            <mxPoint x="640" y="580" as="sourcePoint" />
            <mxPoint x="640" y="760" as="targetPoint" />
          </mxGeometry>
        </mxCell>
        <mxCell id="Fdl6JGxpaCA02cmtLNXk-36" value="" style="endArrow=classic;html=1;rounded=0;strokeWidth=3;strokeColor=#FF2424;entryX=0.746;entryY=0.028;entryDx=0;entryDy=0;entryPerimeter=0;" edge="1" parent="1" target="Fdl6JGxpaCA02cmtLNXk-23">
          <mxGeometry width="50" height="50" relative="1" as="geometry">
            <mxPoint x="880" y="860" as="sourcePoint" />
            <mxPoint x="880" y="1040" as="targetPoint" />
          </mxGeometry>
        </mxCell>
        <mxCell id="Fdl6JGxpaCA02cmtLNXk-37" value="&lt;font style=&quot;font-size: 18px;&quot;&gt;REQUESTS&lt;/font&gt;" style="endArrow=classic;html=1;rounded=0;strokeWidth=3;strokeColor=#FF2424;" edge="1" parent="1">
          <mxGeometry x="-0.0769" width="50" height="50" relative="1" as="geometry">
            <mxPoint x="950" y="860" as="sourcePoint" />
            <mxPoint x="1210" y="860" as="targetPoint" />
            <mxPoint as="offset" />
          </mxGeometry>
        </mxCell>
        <mxCell id="Fdl6JGxpaCA02cmtLNXk-38" value="&lt;font style=&quot;font-size: 18px;&quot;&gt;RESPONSE&lt;/font&gt;" style="endArrow=classic;html=1;rounded=0;strokeWidth=3;strokeColor=#FF2424;" edge="1" parent="1">
          <mxGeometry width="50" height="50" relative="1" as="geometry">
            <mxPoint x="1210" y="820" as="sourcePoint" />
            <mxPoint x="950" y="820" as="targetPoint" />
          </mxGeometry>
        </mxCell>
        <mxCell id="Fdl6JGxpaCA02cmtLNXk-44" value="" style="swimlane;startSize=0;" vertex="1" parent="1">
          <mxGeometry x="80" y="340" width="330" height="160" as="geometry" />
        </mxCell>
        <mxCell id="Fdl6JGxpaCA02cmtLNXk-41" value="" style="rounded=0;whiteSpace=wrap;html=1;strokeWidth=2;direction=north;fillColor=#dae8fc;strokeColor=#6c8ebf;" vertex="1" parent="Fdl6JGxpaCA02cmtLNXk-44">
          <mxGeometry x="70" y="20" width="40" height="120" as="geometry" />
        </mxCell>
        <mxCell id="Fdl6JGxpaCA02cmtLNXk-42" value="" style="rounded=0;whiteSpace=wrap;html=1;strokeWidth=2;direction=north;fillColor=#dae8fc;strokeColor=#6c8ebf;" vertex="1" parent="Fdl6JGxpaCA02cmtLNXk-44">
          <mxGeometry x="120" y="20" width="40" height="120" as="geometry" />
        </mxCell>
        <mxCell id="Fdl6JGxpaCA02cmtLNXk-47" value="&lt;font style=&quot;font-size: 18px;&quot;&gt;MIDDLEWARE&lt;/font&gt;" style="text;html=1;align=center;verticalAlign=middle;resizable=0;points=[];autosize=1;strokeColor=none;fillColor=none;" vertex="1" parent="Fdl6JGxpaCA02cmtLNXk-44">
          <mxGeometry x="170" y="60" width="140" height="40" as="geometry" />
        </mxCell>
        <mxCell id="Fdl6JGxpaCA02cmtLNXk-45" value="" style="rounded=0;whiteSpace=wrap;html=1;strokeWidth=2;direction=north;fillColor=#dae8fc;strokeColor=#6c8ebf;" vertex="1" parent="Fdl6JGxpaCA02cmtLNXk-44">
          <mxGeometry x="20" y="20" width="40" height="120" as="geometry" />
        </mxCell>
        <mxCell id="Fdl6JGxpaCA02cmtLNXk-50" style="edgeStyle=orthogonalEdgeStyle;rounded=0;orthogonalLoop=1;jettySize=auto;html=1;exitX=0.5;exitY=0;exitDx=0;exitDy=0;entryX=0.5;entryY=1;entryDx=0;entryDy=0;strokeWidth=3;strokeColor=#FF2424;" edge="1" parent="1">
          <mxGeometry relative="1" as="geometry">
            <mxPoint x="764.17" y="765" as="sourcePoint" />
            <mxPoint x="764.17" y="575" as="targetPoint" />
          </mxGeometry>
        </mxCell>
        <mxCell id="Fdl6JGxpaCA02cmtLNXk-51" value="&lt;font style=&quot;font-size: 18px;&quot;&gt;RESPONSE&lt;/font&gt;" style="edgeLabel;html=1;align=center;verticalAlign=middle;resizable=0;points=[];" vertex="1" connectable="0" parent="Fdl6JGxpaCA02cmtLNXk-50">
          <mxGeometry x="0.5" y="4" relative="1" as="geometry">
            <mxPoint x="5" y="98" as="offset" />
          </mxGeometry>
        </mxCell>
        <mxCell id="Fdl6JGxpaCA02cmtLNXk-54" value="&lt;font style=&quot;font-size: 18px;&quot;&gt;1&lt;/font&gt;" style="ellipse;whiteSpace=wrap;html=1;aspect=fixed;fillColor=#e51400;strokeColor=#B20000;fontColor=#ffffff;" vertex="1" parent="1">
          <mxGeometry x="900" y="610" width="40" height="40" as="geometry" />
        </mxCell>
        <mxCell id="Fdl6JGxpaCA02cmtLNXk-55" value="&lt;font style=&quot;font-size: 18px;&quot;&gt;2&lt;/font&gt;" style="ellipse;whiteSpace=wrap;html=1;aspect=fixed;fillColor=#e51400;strokeColor=#B20000;fontColor=#ffffff;" vertex="1" parent="1">
          <mxGeometry x="890" y="970" width="40" height="40" as="geometry" />
        </mxCell>
        <mxCell id="Fdl6JGxpaCA02cmtLNXk-56" value="&lt;font style=&quot;font-size: 18px;&quot;&gt;3&lt;/font&gt;" style="ellipse;whiteSpace=wrap;html=1;aspect=fixed;fillColor=#e51400;strokeColor=#B20000;fontColor=#ffffff;" vertex="1" parent="1">
          <mxGeometry x="710" y="930" width="40" height="40" as="geometry" />
        </mxCell>
        <mxCell id="Fdl6JGxpaCA02cmtLNXk-57" value="&lt;font style=&quot;font-size: 18px;&quot;&gt;4&lt;/font&gt;" style="ellipse;whiteSpace=wrap;html=1;aspect=fixed;fillColor=#e51400;strokeColor=#B20000;fontColor=#ffffff;" vertex="1" parent="1">
          <mxGeometry x="955" y="870" width="40" height="40" as="geometry" />
        </mxCell>
        <mxCell id="Fdl6JGxpaCA02cmtLNXk-58" value="&lt;font style=&quot;font-size: 18px;&quot;&gt;5&lt;/font&gt;" style="ellipse;whiteSpace=wrap;html=1;aspect=fixed;fillColor=#e51400;strokeColor=#B20000;fontColor=#ffffff;" vertex="1" parent="1">
          <mxGeometry x="1180" y="770" width="40" height="40" as="geometry" />
        </mxCell>
        <mxCell id="Fdl6JGxpaCA02cmtLNXk-59" value="&lt;font style=&quot;font-size: 18px;&quot;&gt;6&lt;/font&gt;" style="ellipse;whiteSpace=wrap;html=1;aspect=fixed;fillColor=#e51400;strokeColor=#B20000;fontColor=#ffffff;" vertex="1" parent="1">
          <mxGeometry x="770" y="750" width="40" height="40" as="geometry" />
        </mxCell>
        <mxCell id="Fdl6JGxpaCA02cmtLNXk-60" value="&lt;font style=&quot;font-size: 18px;&quot;&gt;7&lt;/font&gt;" style="ellipse;whiteSpace=wrap;html=1;aspect=fixed;fillColor=#e51400;strokeColor=#B20000;fontColor=#ffffff;" vertex="1" parent="1">
          <mxGeometry x="590" y="560" width="40" height="40" as="geometry" />
        </mxCell>
        <mxCell id="Fdl6JGxpaCA02cmtLNXk-61" value="&lt;font style=&quot;font-size: 18px;&quot;&gt;8&lt;/font&gt;" style="ellipse;whiteSpace=wrap;html=1;aspect=fixed;fillColor=#e51400;strokeColor=#B20000;fontColor=#ffffff;" vertex="1" parent="1">
          <mxGeometry x="545" y="790" width="40" height="40" as="geometry" />
        </mxCell>
        <mxCell id="Fdl6JGxpaCA02cmtLNXk-62" value="&lt;font style=&quot;font-size: 18px;&quot;&gt;INTERNET&lt;/font&gt;" style="ellipse;shape=cloud;whiteSpace=wrap;html=1;fillColor=#f9f7ed;strokeColor=#36393d;" vertex="1" parent="1">
          <mxGeometry x="1220" y="560" width="280.5" height="120" as="geometry" />
        </mxCell>
      </root>
    </mxGraphModel>
  </diagram>
</mxfile>
